<svg width="1438" height="778" xmlns="http://www.w3.org/2000/svg"><g><path d="M-83,-101L-132,861L-110,522Z" fill="#d0d0d0" stroke="#d0d0d0"/><path d="M-83,-101L-110,522L-84,233Z" fill="#f5f5f5" stroke="#f5f5f5"/><path d="M-83,-101L-84,233L-65,71Z" fill="#ffffff" stroke="#ffffff"/><path d="M-83,-101L-65,71L78,-19Z" fill="#fdfdfd" stroke="#fdfdfd"/><path d="M-83,-101L78,-19L312,-126Z" fill="#f5f5f5" stroke="#f5f5f5"/><path d="M78,-19L-65,71L106,23Z" fill="#f9f9f9" stroke="#f9f9f9"/><path d="M78,-19L106,23L278,-66Z" fill="#f2f2f2" stroke="#f2f2f2"/><path d="M78,-19L278,-66L312,-126Z" fill="#ededed" stroke="#ededed"/><path d="M278,-66L106,23L233,90Z" fill="#eeeeee" stroke="#eeeeee"/><path d="M278,-66L233,90L314,98Z" fill="#eaeaea" stroke="#eaeaea"/><path d="M278,-66L314,98L496,67Z" fill="#e5e5e5" stroke="#e5e5e5"/><path d="M278,-66L496,67L312,-126Z" fill="#e5e5e5" stroke="#e5e5e5"/><path d="M312,-126L496,67L545,-47Z" fill="#e0e0e0" stroke="#e0e0e0"/><path d="M312,-126L545,-47L633,-73Z" fill="#dddddd" stroke="#dddddd"/><path d="M312,-126L633,-73L774,-94Z" fill="#d7d7d7" stroke="#d7d7d7"/><path d="M312,-126L774,-94L983,-98Z" fill="#cdcdcd" stroke="#cdcdcd"/><path d="M312,-126L983,-98L1372,-126Z" fill="#b9b9b9" stroke="#b9b9b9"/><path d="M545,-47L496,67L660,126Z" fill="#d7d7d7" stroke="#d7d7d7"/><path d="M545,-47L660,126L633,-73Z" fill="#d3d3d3" stroke="#d3d3d3"/><path d="M633,-73L660,126L774,-94Z" fill="#cdcdcd" stroke="#cdcdcd"/><path d="M774,-94L660,126L856,45Z" fill="#c6c6c6" stroke="#c6c6c6"/><path d="M774,-94L856,45L983,-98Z" fill="#bbbbbb" stroke="#bbbbbb"/><path d="M983,-98L856,45L1008,93Z" fill="#b2b2b2" stroke="#b2b2b2"/><path d="M983,-98L1008,93L1124,42Z" fill="#a7a7a7" stroke="#a7a7a7"/><path d="M983,-98L1124,42L1168,-43Z" fill="#a0a0a0" stroke="#a0a0a0"/><path d="M983,-98L1168,-43L1372,-126Z" fill="#959595" stroke="#959595"/><path d="M1168,-43L1124,42L1298,133Z" fill="#929292" stroke="#929292"/><path d="M1168,-43L1298,133L1299,-58Z" fill="#8b8b8b" stroke="#8b8b8b"/><path d="M1168,-43L1299,-58L1372,-126Z" fill="#888888" stroke="#888888"/><path d="M1299,-58L1298,133L1381,139Z" fill="#828282" stroke="#828282"/><path d="M1299,-58L1381,139L1541,-42Z" fill="#808080" stroke="#808080"/><path d="M1299,-58L1541,-42L1372,-126Z" fill="#808080" stroke="#808080"/><path d="M1541,-42L1381,139L1571,37Z" fill="#808080" stroke="#808080"/><path d="M-65,71L-84,233L131,269Z" fill="#f5f5f5" stroke="#f5f5f5"/><path d="M-65,71L131,269L106,23Z" fill="#f8f8f8" stroke="#f8f8f8"/><path d="M106,23L131,269L233,90Z" fill="#f1f1f1" stroke="#f1f1f1"/><path d="M233,90L131,269L285,279Z" fill="#e4e4e4" stroke="#e4e4e4"/><path d="M233,90L285,279L314,98Z" fill="#e7e7e7" stroke="#e7e7e7"/><path d="M314,98L285,279L430,186Z" fill="#e0e0e0" stroke="#e0e0e0"/><path d="M314,98L430,186L496,67Z" fill="#e2e2e2" stroke="#e2e2e2"/><path d="M496,67L430,186L505,221Z" fill="#dbdbdb" stroke="#dbdbdb"/><path d="M496,67L505,221L660,126Z" fill="#d7d7d7" stroke="#d7d7d7"/><path d="M660,126L505,221L699,203Z" fill="#cdcdcd" stroke="#cdcdcd"/><path d="M660,126L699,203L856,45Z" fill="#c9c9c9" stroke="#c9c9c9"/><path d="M856,45L699,203L762,280Z" fill="#c0c0c0" stroke="#c0c0c0"/><path d="M856,45L762,280L997,161Z" fill="#b7b7b7" stroke="#b7b7b7"/><path d="M856,45L997,161L1008,93Z" fill="#b2b2b2" stroke="#b2b2b2"/><path d="M1008,93L997,161L1095,198Z" fill="#a5a5a5" stroke="#a5a5a5"/><path d="M1008,93L1095,198L1124,42Z" fill="#a2a2a2" stroke="#a2a2a2"/><path d="M1124,42L1095,198L1298,133Z" fill="#969696" stroke="#969696"/><path d="M1298,133L1095,198L1294,192Z" fill="#898989" stroke="#898989"/><path d="M1298,133L1294,192L1381,139Z" fill="#7f7f7f" stroke="#7f7f7f"/><path d="M1381,139L1294,192L1383,221Z" fill="#797979" stroke="#797979"/><path d="M1381,139L1383,221L1554,273Z" fill="#767676" stroke="#767676"/><path d="M1381,139L1554,273L1571,37Z" fill="#7d7d7d" stroke="#7d7d7d"/><path d="M1571,37L1554,273L1631,846Z" fill="#5a5a5a" stroke="#5a5a5a"/><path d="M-84,233L-110,522L-80,396Z" fill="#dadada" stroke="#dadada"/><path d="M-84,233L-80,396L131,269Z" fill="#e6e6e6" stroke="#e6e6e6"/><path d="M131,269L-80,396L115,432Z" fill="#d6d6d6" stroke="#d6d6d6"/><path d="M131,269L115,432L251,382Z" fill="#d0d0d0" stroke="#d0d0d0"/><path d="M131,269L251,382L285,279Z" fill="#d5d5d5" stroke="#d5d5d5"/><path d="M285,279L251,382L403,354Z" fill="#cbcbcb" stroke="#cbcbcb"/><path d="M285,279L403,354L430,186Z" fill="#d3d3d3" stroke="#d3d3d3"/><path d="M430,186L403,354L505,221Z" fill="#d2d2d2" stroke="#d2d2d2"/><path d="M505,221L403,354L466,361Z" fill="#c7c7c7" stroke="#c7c7c7"/><path d="M505,221L466,361L735,337Z" fill="#bfbfbf" stroke="#bfbfbf"/><path d="M505,221L735,337L699,203Z" fill="#c2c2c2" stroke="#c2c2c2"/><path d="M699,203L735,337L762,280Z" fill="#b8b8b8" stroke="#b8b8b8"/><path d="M762,280L735,337L889,393Z" fill="#a6a6a6" stroke="#a6a6a6"/><path d="M762,280L889,393L997,161Z" fill="#a7a7a7" stroke="#a7a7a7"/><path d="M997,161L889,393L1038,342Z" fill="#999999" stroke="#999999"/><path d="M997,161L1038,342L1095,198Z" fill="#9a9a9a" stroke="#9a9a9a"/><path d="M1095,198L1038,342L1267,417Z" fill="#818181" stroke="#818181"/><path d="M1095,198L1267,417L1294,192Z" fill="#7f7f7f" stroke="#7f7f7f"/><path d="M1294,192L1267,417L1383,221Z" fill="#717171" stroke="#717171"/><path d="M1383,221L1267,417L1480,413Z" fill="#616161" stroke="#616161"/><path d="M1383,221L1480,413L1554,273Z" fill="#696969" stroke="#696969"/><path d="M1554,273L1480,413L1517,430Z" fill="#5d5d5d" stroke="#5d5d5d"/><path d="M1554,273L1517,430L1548,577Z" fill="#515151" stroke="#515151"/><path d="M1554,273L1548,577L1631,846Z" fill="#2e2e2e" stroke="#2e2e2e"/><path d="M-80,396L-110,522L115,432Z" fill="#c8c8c8" stroke="#c8c8c8"/><path d="M115,432L-110,522L133,461Z" fill="#bfbfbf" stroke="#bfbfbf"/><path d="M115,432L133,461L251,382Z" fill="#c2c2c2" stroke="#c2c2c2"/><path d="M251,382L133,461L273,475Z" fill="#bcbcbc" stroke="#bcbcbc"/><path d="M251,382L273,475L361,468Z" fill="#b7b7b7" stroke="#b7b7b7"/><path d="M251,382L361,468L403,354Z" fill="#bdbdbd" stroke="#bdbdbd"/><path d="M403,354L361,468L466,361Z" fill="#bbbbbb" stroke="#bbbbbb"/><path d="M466,361L361,468L564,492Z" fill="#adadad" stroke="#adadad"/><path d="M466,361L564,492L735,337Z" fill="#adadad" stroke="#adadad"/><path d="M735,337L564,492L661,513Z" fill="#9d9d9d" stroke="#9d9d9d"/><path d="M735,337L661,513L808,468Z" fill="#979797" stroke="#979797"/><path d="M735,337L808,468L889,393Z" fill="#989898" stroke="#989898"/><path d="M889,393L808,468L975,465Z" fill="#868686" stroke="#868686"/><path d="M889,393L975,465L1038,342Z" fill="#888888" stroke="#888888"/><path d="M1038,342L975,465L1061,424Z" fill="#7e7e7e" stroke="#7e7e7e"/><path d="M1038,342L1061,424L1267,417Z" fill="#757575" stroke="#757575"/><path d="M1061,424L975,465L1079,463Z" fill="#727272" stroke="#727272"/><path d="M1061,424L1079,463L1267,417Z" fill="#6a6a6a" stroke="#6a6a6a"/><path d="M1267,417L1079,463L1318,491Z" fill="#595959" stroke="#595959"/><path d="M1267,417L1318,491L1480,413Z" fill="#4e4e4e" stroke="#4e4e4e"/><path d="M1480,413L1318,491L1441,590Z" fill="#404040" stroke="#404040"/><path d="M1480,413L1441,590L1517,430Z" fill="#454545" stroke="#454545"/><path d="M1517,430L1441,590L1548,577Z" fill="#373737" stroke="#373737"/><path d="M-110,522L-132,861L-38,639Z" fill="#8e8e8e" stroke="#8e8e8e"/><path d="M-110,522L-38,639L133,461Z" fill="#b1b1b1" stroke="#b1b1b1"/><path d="M133,461L-38,639L206,661Z" fill="#9d9d9d" stroke="#9d9d9d"/><path d="M133,461L206,661L273,475Z" fill="#a6a6a6" stroke="#a6a6a6"/><path d="M273,475L206,661L431,640Z" fill="#8f8f8f" stroke="#8f8f8f"/><path d="M273,475L431,640L361,468Z" fill="#9f9f9f" stroke="#9f9f9f"/><path d="M361,468L431,640L500,613Z" fill="#8d8d8d" stroke="#8d8d8d"/><path d="M361,468L500,613L564,492Z" fill="#999999" stroke="#999999"/><path d="M564,492L500,613L661,513Z" fill="#8c8c8c" stroke="#8c8c8c"/><path d="M661,513L500,613L678,702Z" fill="#757575" stroke="#757575"/><path d="M661,513L678,702L789,698Z" fill="#656565" stroke="#656565"/><path d="M661,513L789,698L808,468Z" fill="#777777" stroke="#777777"/><path d="M808,468L789,698L960,667Z" fill="#5e5e5e" stroke="#5e5e5e"/><path d="M808,468L960,667L975,465Z" fill="#6d6d6d" stroke="#6d6d6d"/><path d="M975,465L960,667L1079,463Z" fill="#636363" stroke="#636363"/><path d="M1079,463L960,667L1083,705Z" fill="#484848" stroke="#484848"/><path d="M1079,463L1083,705L1318,491Z" fill="#494949" stroke="#494949"/><path d="M1318,491L1083,705L1323,728Z" fill="#252525" stroke="#252525"/><path d="M1318,491L1323,728L1400,635Z" fill="#1f1f1f" stroke="#1f1f1f"/><path d="M1318,491L1400,635L1441,590Z" fill="#2c2c2c" stroke="#2c2c2c"/><path d="M1441,590L1400,635L1538,658Z" fill="#1c1c1c" stroke="#1c1c1c"/><path d="M1441,590L1538,658L1548,577Z" fill="#222222" stroke="#222222"/><path d="M1548,577L1538,658L1631,846Z" fill="#090909" stroke="#090909"/><path d="M-38,639L-132,861L65,811Z" fill="#7e7e7e" stroke="#7e7e7e"/><path d="M-38,639L65,811L130,731Z" fill="#787878" stroke="#787878"/><path d="M-38,639L130,731L206,661Z" fill="#848484" stroke="#848484"/><path d="M130,731L65,811L174,760Z" fill="#747474" stroke="#747474"/><path d="M130,731L174,760L206,661Z" fill="#747474" stroke="#747474"/><path d="M206,661L174,760L421,820Z" fill="#6b6b6b" stroke="#6b6b6b"/><path d="M206,661L421,820L431,640Z" fill="#6c6c6c" stroke="#6c6c6c"/><path d="M431,640L421,820L585,774Z" fill="#5f5f5f" stroke="#5f5f5f"/><path d="M431,640L585,774L500,613Z" fill="#6b6b6b" stroke="#6b6b6b"/><path d="M500,613L585,774L678,702Z" fill="#5e5e5e" stroke="#5e5e5e"/><path d="M678,702L585,774L699,772Z" fill="#515151" stroke="#515151"/><path d="M678,702L699,772L789,698Z" fill="#4b4b4b" stroke="#4b4b4b"/><path d="M789,698L699,772L873,878Z" fill="#444444" stroke="#444444"/><path d="M789,698L873,878L960,667Z" fill="#3b3b3b" stroke="#3b3b3b"/><path d="M960,667L873,878L999,888Z" fill="#333333" stroke="#333333"/><path d="M960,667L999,888L1067,846Z" fill="#2b2b2b" stroke="#2b2b2b"/><path d="M960,667L1067,846L1083,705Z" fill="#282828" stroke="#282828"/><path d="M1083,705L1067,846L1255,768Z" fill="#1b1b1b" stroke="#1b1b1b"/><path d="M1083,705L1255,768L1323,728Z" fill="#101010" stroke="#101010"/><path d="M1323,728L1255,768L1444,798Z" fill="#000000" stroke="#000000"/><path d="M1323,728L1444,798L1400,635Z" fill="#020202" stroke="#020202"/><path d="M1400,635L1444,798L1538,658Z" fill="#080808" stroke="#080808"/><path d="M1538,658L1444,798L1631,846Z" fill="#000000" stroke="#000000"/><path d="M-132,861L-90,998L26,976Z" fill="#808080" stroke="#808080"/><path d="M-132,861L26,976L65,811Z" fill="#7d7d7d" stroke="#7d7d7d"/><path d="M65,811L26,976L217,933Z" fill="#757575" stroke="#757575"/><path d="M65,811L217,933L174,760Z" fill="#727272" stroke="#727272"/><path d="M174,760L217,933L371,919Z" fill="#6c6c6c" stroke="#6c6c6c"/><path d="M174,760L371,919L421,820Z" fill="#686868" stroke="#686868"/><path d="M421,820L371,919L484,966Z" fill="#626262" stroke="#626262"/><path d="M421,820L484,966L585,774Z" fill="#5d5d5d" stroke="#5d5d5d"/><path d="M585,774L484,966L682,1034Z" fill="#565656" stroke="#565656"/><path d="M585,774L682,1034L699,772Z" fill="#505050" stroke="#505050"/><path d="M699,772L682,1034L873,878Z" fill="#484848" stroke="#484848"/><path d="M873,878L682,1034L840,1015Z" fill="#434343" stroke="#434343"/><path d="M873,878L840,1015L999,1029Z" fill="#383838" stroke="#383838"/><path d="M873,878L999,1029L999,888Z" fill="#323232" stroke="#323232"/><path d="M999,888L999,1029L1174,986Z" fill="#252525" stroke="#252525"/><path d="M999,888L1174,986L1067,846Z" fill="#222222" stroke="#222222"/><path d="M1067,846L1174,986L1220,935Z" fill="#191919" stroke="#191919"/><path d="M1067,846L1220,935L1255,768Z" fill="#151515" stroke="#151515"/><path d="M1255,768L1220,935L1444,798Z" fill="#050505" stroke="#050505"/><path d="M1444,798L1220,935L1455,969Z" fill="#000000" stroke="#000000"/><path d="M1444,798L1455,969L1631,846Z" fill="#000000" stroke="#000000"/><path d="M1631,846L1455,969L1622,956Z" fill="#000000" stroke="#000000"/><path d="M-90,998L682,1034L26,976Z" fill="#6f6f6f" stroke="#6f6f6f"/><path d="M26,976L682,1034L484,966Z" fill="#646464" stroke="#646464"/><path d="M26,976L484,966L217,933Z" fill="#6d6d6d" stroke="#6d6d6d"/><path d="M217,933L484,966L371,919Z" fill="#666666" stroke="#666666"/><path d="M682,1034L999,1029L840,1015Z" fill="#3e3e3e" stroke="#3e3e3e"/><path d="M999,1029L1622,956L1455,969Z" fill="#000000" stroke="#000000"/><path d="M999,1029L1455,969L1174,986Z" fill="#111111" stroke="#111111"/><path d="M1174,986L1455,969L1220,935Z" fill="#080808" stroke="#080808"/></g></svg>